<svg width="52" height="38" viewBox="0 0 52 38" fill="none" xmlns="http://www.w3.org/2000/svg">
<path fill-rule="evenodd" clip-rule="evenodd" d="M44.7206 10.2917H50.145C50.9555 10.2917 51.5278 11.0857 51.2715 11.8547L50.4798 14.2297C50.3182 14.7146 49.8644 15.0417 49.3533 15.0417H46.5018L46.507 15.0555C48.4416 16.1394 49.75 18.208 49.75 20.5833V25.3333C49.75 26.9388 49.1514 28.4038 48.1667 29.5202V35.625C48.1667 36.9367 47.1034 38 45.7917 38H41.0417C39.73 38 38.6667 36.9367 38.6667 35.625V31.6667H13.3334V35.625C13.3334 36.9367 12.27 38 10.9584 38H6.20835C4.89666 38 3.83335 36.9367 3.83335 35.625V29.5202C2.84862 28.4039 2.25002 26.9389 2.25002 25.3333V20.5833C2.25002 18.208 3.55845 16.1394 5.49308 15.0555L5.49823 15.0417H2.64674C2.13562 15.0417 1.68184 14.7146 1.5202 14.2297L0.728535 11.8547C0.472233 11.0857 1.04451 10.2917 1.85508 10.2917H7.27948L8.0567 8.21908C8.96632 5.79332 10.5726 3.73122 12.702 2.25556C14.8313 0.77999 17.3261 0 19.9169 0H32.0832C34.6738 0 37.1688 0.779891 39.298 2.25556C41.4273 3.73122 43.0337 5.79332 43.9433 8.21908L44.7206 10.2917ZM19.9169 6.33333C17.2917 6.33333 14.9086 7.98485 13.9868 10.4429L12.5591 14.25H39.4409L38.0133 10.4429C37.0915 7.98485 34.7084 6.33333 32.0832 6.33333H19.9169ZM9.37502 26.125C7.62613 26.125 6.20835 24.7072 6.20835 22.9583C6.20835 21.2094 7.62613 19.7917 9.37502 19.7917C11.1239 19.7917 14.125 22.7928 14.125 24.5417C14.125 26.1567 11.5657 26.1391 9.79667 26.127C9.65005 26.126 9.50887 26.125 9.37502 26.125ZM42.2034 26.127C42.35 26.126 42.4912 26.125 42.625 26.125C44.3739 26.125 45.7917 24.7072 45.7917 22.9583C45.7917 21.2094 44.3739 19.7917 42.625 19.7917C40.8761 19.7917 37.875 22.7928 37.875 24.5417C37.875 26.1567 40.4343 26.1391 42.2034 26.127Z" fill="white"/>
</svg>
