<svg width="44" height="44" viewBox="0 0 44 44" fill="none" xmlns="http://www.w3.org/2000/svg">
<path fill-rule="evenodd" clip-rule="evenodd" d="M22.0314 0C9.89994 0 0.0313721 9.86857 0.0313721 22C0.0313721 34.1314 9.89994 44 22.0314 44C23.5399 44 24.9857 43.8429 26.3685 43.56C25.8342 43.3086 25.7399 41.2657 26.3057 40.1343C26.3752 39.9841 26.4632 39.8071 26.5612 39.6097L26.5613 39.6095C27.3046 38.1132 28.6279 35.4489 26.9342 34.4771C25.7322 33.7875 25.4939 33.3449 25.1967 32.7931C25.0199 32.4648 24.8223 32.0978 24.3885 31.6171C23.5127 30.6467 23.5639 30.3001 23.6023 30.0405C23.6149 29.9554 23.6261 29.8796 23.6028 29.7943C23.3814 28.8535 24.4269 27.4011 24.7444 26.96L24.7445 26.9599L24.7447 26.9596L24.7448 26.9594C24.7877 26.8998 24.8173 26.8587 24.8285 26.84C24.8914 26.6514 24.8914 25.9914 24.8285 25.8029C24.8285 25.5514 23.9799 25.1114 23.7599 25.08C23.669 25.08 23.5854 25.1604 23.4915 25.2507C23.3906 25.3476 23.2778 25.456 23.1314 25.4886C22.8485 25.5514 21.5599 24.7029 21.2771 24.4514C21.1509 24.3392 21.0497 24.1832 20.94 24.0141L20.94 24.0141L20.9399 24.014C20.8039 23.8042 20.6547 23.5743 20.4285 23.3829C20.1988 23.1531 20.0883 23.1519 19.9294 23.1502C19.8058 23.1489 19.6528 23.1472 19.3914 23.0371C18.7942 22.7857 16.8771 22.0629 15.3685 21.5286C13.8599 20.9314 13.7342 20.0514 13.7342 19.4543C13.6927 19.0389 13.2944 18.5275 12.9201 18.047C12.7279 17.8003 12.5422 17.5618 12.4142 17.3486C12.1809 17.0153 12.0537 16.6201 11.9668 16.3505C11.8899 16.1117 11.8447 15.9714 11.7857 16.06C11.7229 16.1541 11.9186 16.7651 12.1108 17.3652C12.3036 17.9673 12.4929 18.5585 12.4142 18.6057C12.3141 18.6458 12.1374 18.3796 11.9086 18.0348C11.7783 17.8385 11.631 17.6167 11.4714 17.4114C11.3153 17.1997 11.3253 17.1025 11.3415 16.9448C11.3709 16.6578 11.421 16.1701 10.5285 14.4257C9.5801 12.572 10.1396 11.3392 10.6151 10.2913C10.833 9.81124 11.0332 9.37003 11.0628 8.92571C11.1344 7.85126 11.7865 8.71774 11.8339 8.78275C11.8219 8.76581 11.7695 8.69016 11.6599 8.51714C11.3386 8.00977 11.3631 7.23846 11.3857 6.52645C11.4051 5.91534 11.4232 5.34792 11.2199 5.02857C10.8114 4.33714 8.45423 5.81429 8.45423 5.81429C8.49951 5.31616 9.60507 4.58967 10.772 3.82283C11.2249 3.52525 11.687 3.2216 12.0999 2.92286C13.2453 2.09432 14.0883 2.43726 14.9659 2.79429C15.2202 2.89772 15.4774 3.00234 15.7457 3.08C16.9714 3.48857 17.0342 3.36286 16.6257 2.92286C16.2171 2.51429 16.8142 2.38857 17.7571 2.51429C18.1057 2.57653 18.3655 2.79166 18.6401 3.01901C19.0587 3.3656 19.5116 3.74061 20.3657 3.64571C21.2502 3.58925 21.1317 3.70184 20.9348 3.88899C20.8029 4.01438 20.6357 4.17323 20.7114 4.33714C20.8382 4.61198 20.7091 4.6735 20.3048 4.86608C20.1081 4.95979 19.8463 5.08454 19.5171 5.28C18.8663 5.71384 19.1438 5.87819 19.9259 6.34138C20.2769 6.54929 20.7296 6.81741 21.2457 7.19714C22.9089 8.421 22.4414 6.4175 22.2209 5.47286L22.2199 5.46857C21.9999 4.52571 23.4457 5.28 23.4457 5.28C24.074 5.69886 24.2524 5.6333 24.4562 5.55845C24.5888 5.50974 24.7321 5.45709 25.0171 5.53143C25.7399 5.72 27.8771 7.54286 27.8771 7.54286C25.7723 8.65867 26.4298 8.95599 26.9934 9.21083C27.1283 9.27182 27.2578 9.33038 27.3428 9.39714C27.7828 9.74286 26.4628 10.34 26.4628 10.34C26.0921 9.96928 25.9483 10.1433 25.7796 10.3476C25.7051 10.4377 25.6258 10.5337 25.5199 10.5914C25.1742 10.78 25.4571 11.2829 25.4571 11.2829C23.7798 11.5524 24.0435 13.2777 24.1264 13.8201L24.1327 13.8618L24.1371 13.8914C24.1371 14.1133 23.8334 14.3991 23.496 14.7166C23.1644 15.0288 22.8002 15.3715 22.6599 15.7143C22.5253 16.0136 22.697 16.4839 22.8494 16.9013C23.017 17.3605 23.1613 17.7556 22.8485 17.7886C22.6704 17.8167 22.5034 17.6434 22.2759 17.4073C21.7407 16.8519 20.8704 15.9487 18.7314 16.5C17.7885 16.7514 15.7771 17.7886 16.8771 19.8943C17.6315 21.3402 18.6653 20.5925 19.4475 20.0268C19.8385 19.744 20.1667 19.5067 20.3657 19.6114C20.7755 19.8271 20.534 20.5313 20.3827 20.9722C20.3136 21.1738 20.2634 21.3203 20.3028 21.34C20.3191 21.3481 20.359 21.3552 20.4164 21.3654C20.8028 21.4339 21.9807 21.6427 22.0628 23.2571C22.1445 24.8648 23.9036 24.9369 24.6773 24.9686C24.796 24.9734 24.8915 24.9774 24.9542 24.9857C25.294 24.9857 26.0912 24.4266 26.6833 24.0113C27.0223 23.7735 27.2941 23.5829 27.3742 23.5714C27.3886 23.5642 27.4078 23.553 27.4318 23.5389L27.4321 23.5388L27.4321 23.5387C27.7231 23.3681 28.7252 22.7806 30.6114 23.8543C31.8014 24.5034 32.6398 24.7284 33.2688 24.8972C33.7362 25.0226 34.0881 25.1171 34.3828 25.3314C34.7341 25.5869 34.7933 25.9641 34.849 26.3186C34.903 26.662 34.9536 26.9842 35.2628 27.1543C35.4863 27.2772 35.9722 27.3008 36.5366 27.3282C37.5593 27.3778 38.8401 27.44 39.2857 28.1286C39.9771 29.1971 36.5199 34.6971 35.4514 35.2943C34.8846 35.611 34.4947 36.1576 34.0846 36.7325L34.0846 36.7325C33.7215 37.2414 33.3427 37.7725 32.8114 38.1857C32.7085 38.2657 32.6034 38.3477 32.4961 38.4315C31.4226 39.269 30.1343 40.2743 28.8199 41.0457C28.0298 41.489 27.6533 42.1686 27.3425 42.7295C27.1465 43.0833 26.9766 43.3898 26.7457 43.56C36.6142 41.36 43.9685 32.56 43.9685 22.0629C43.9685 9.93143 34.0999 0.0628571 21.9685 0.0628571L22.0314 0ZM27.1857 20.6171C27.1449 20.6307 27.0975 20.6548 27.0416 20.6832C26.7102 20.8517 26.079 21.1726 24.7342 20.3657C23.6747 19.7035 22.8477 19.6149 22.3948 19.5664C22.2029 19.5458 22.0781 19.5325 22.0314 19.4857C22.0314 19.4857 21.8742 19.14 22.5657 19.0457C23.4897 18.9407 24.554 19.5513 25.2804 19.9681C25.6412 20.1751 25.9187 20.3343 26.0542 20.3343C26.203 20.3343 26.3226 20.2801 26.4479 20.2234C26.6668 20.1243 26.9031 20.0173 27.3428 20.1771C28.0342 20.4286 27.4999 20.5857 27.1857 20.6171ZM20.1088 1.88189C19.9591 2.01596 19.8352 2.12688 19.9571 2.2C20.2085 2.35714 21.6857 2.26286 22.0314 1.41429C22.3142 0.534286 20.7428 0.974286 20.3971 1.32C20.3499 1.36714 20.3342 1.45357 20.3185 1.54C20.3028 1.62643 20.2871 1.71286 20.2399 1.76C20.1976 1.8023 20.1522 1.84302 20.1089 1.8818L20.1088 1.88186L20.1088 1.88189ZM23.8228 4.99714C23.7704 4.99163 23.7132 4.98588 23.6526 4.97977C23.0216 4.9163 22.0165 4.8152 22.1885 4.55714C23.1314 3.67714 21.9057 3.36286 21.1199 3.36286C20.3342 3.3 20.0514 2.86 20.4285 2.76571C20.8057 2.67143 22.3457 2.82857 22.6285 3.01714C22.6991 3.07008 22.8588 3.15521 23.0542 3.25932C23.5548 3.52611 24.2893 3.91755 24.3571 4.21143C24.4199 4.62 24.3571 4.99714 23.8228 4.99714ZM25.4571 3.20571C25.8342 3.55143 28.0028 5.12286 28.4428 4.84H28.4742C28.7238 4.60823 28.5183 4.2551 28.2822 3.84945C28.1022 3.54 27.9043 3.2 27.8771 2.86C27.8771 1.98 26.7457 1.22571 25.8028 1.13143C25.4908 1.10123 25.1175 1.01301 24.7346 0.922518C23.9219 0.730446 23.0658 0.528123 22.6599 0.848571C22.0628 1.32 21.9685 1.60286 22.3142 1.91714C22.4228 2.01585 22.5996 2.03085 22.8455 2.05173C23.3827 2.09733 24.2498 2.17093 25.4571 3.20571Z" fill="white"/>
</svg>
