<svg width="30" height="30" viewBox="0 0 30 30" fill="none" xmlns="http://www.w3.org/2000/svg">
<rect width="30" height="30" fill="#D8D8D8" fill-opacity="0.01"/>
<path fill-rule="evenodd" clip-rule="evenodd" d="M26.1215 12.933V12.3152C26.1215 11.8033 25.7065 11.3884 25.1947 11.3884H22.5942L18.4708 5.71867C18.0694 5.16673 17.2965 5.0447 16.7446 5.44612C16.1927 5.84753 16.0706 6.6204 16.4721 7.1723L19.5383 11.3884H10.4617L13.528 7.17234C13.9294 6.6204 13.8073 5.84757 13.2554 5.44616C12.7034 5.04474 11.9306 5.16681 11.5292 5.71871L7.40578 11.3884H4.80533C4.29347 11.3884 3.87854 11.8033 3.87854 12.3152V12.933C3.87854 13.4449 4.29347 13.8598 4.80533 13.8598H5.11426L6.1226 20.9184C6.25309 21.8315 7.03514 22.5098 7.95757 22.5098H22.0424C22.9649 22.5098 23.7469 21.8315 23.8774 20.9184L24.8857 13.8598H25.1947C25.7065 13.8598 26.1215 13.4449 26.1215 12.933ZM15.9268 14.7866V19.1116C15.9268 19.6235 15.5119 20.0384 15 20.0384C14.4881 20.0384 14.0732 19.6235 14.0732 19.1116V14.7866C14.0732 14.2747 14.4881 13.8598 15 13.8598C15.5119 13.8598 15.9268 14.2747 15.9268 14.7866ZM20.2518 19.1116V14.7866C20.2518 14.2747 19.8369 13.8598 19.325 13.8598C18.8132 13.8598 18.3982 14.2747 18.3982 14.7866V19.1116C18.3982 19.6235 18.8132 20.0384 19.325 20.0384C19.8369 20.0384 20.2518 19.6235 20.2518 19.1116ZM11.6018 14.7866V19.1116C11.6018 19.6235 11.1868 20.0384 10.675 20.0384C10.1631 20.0384 9.7482 19.6235 9.7482 19.1116V14.7866C9.7482 14.2747 10.1631 13.8598 10.675 13.8598C11.1868 13.8598 11.6018 14.2747 11.6018 14.7866Z" fill="white"/>
</svg>
